<svg width="629" height="198" viewBox="0 0 629 198" fill="none" xmlns="http://www.w3.org/2000/svg">
<rect x="68" y="33" width="472" height="122" rx="61" fill="url(#paint0_linear_2_9)"/>
<path d="M157.359 59.75V128H144.422L115.406 80.6562V128H102.516V59.75H115.406L144.516 107.141V59.75H157.359Z" fill="#655D8A"/>
<path d="M209.421 70.1094L189.968 128H176.327L201.827 59.75H210.546L209.421 70.1094ZM225.686 128L206.139 70.1094L204.968 59.75H213.733L239.374 128H225.686ZM224.796 102.641V112.812H188.186V102.641H224.796Z" fill="#7897AB"/>
<path d="M255.208 59.75H280.005C285.192 59.75 289.645 60.5312 293.364 62.0938C297.083 63.6562 299.942 65.9688 301.942 69.0312C303.942 72.0938 304.942 75.8594 304.942 80.3281C304.942 83.8594 304.317 86.9219 303.067 89.5156C301.817 92.1094 300.051 94.2812 297.77 96.0312C295.52 97.7812 292.864 99.1562 289.801 100.156L285.77 102.219H263.88L263.786 92.0469H280.145C282.801 92.0469 285.005 91.5781 286.755 90.6406C288.505 89.7031 289.817 88.4062 290.692 86.75C291.598 85.0938 292.051 83.2031 292.051 81.0781C292.051 78.7969 291.614 76.8281 290.739 75.1719C289.864 73.4844 288.536 72.1875 286.755 71.2812C284.973 70.375 282.723 69.9219 280.005 69.9219H268.098V128H255.208V59.75ZM293.739 128L277.942 97.4375L291.583 97.3906L307.567 127.344V128H293.739Z" fill="#D885A3"/>
<path d="M361.546 59.75H374.437V105.078C374.437 110.297 373.312 114.688 371.062 118.25C368.812 121.781 365.749 124.453 361.874 126.266C357.999 128.047 353.593 128.938 348.655 128.938C343.655 128.938 339.202 128.047 335.296 126.266C331.39 124.453 328.327 121.781 326.108 118.25C323.89 114.688 322.78 110.297 322.78 105.078V59.75H335.671V105.078C335.671 108.266 336.202 110.875 337.265 112.906C338.327 114.906 339.827 116.391 341.765 117.359C343.702 118.328 345.999 118.812 348.655 118.812C351.343 118.812 353.64 118.328 355.546 117.359C357.483 116.391 358.968 114.906 359.999 112.906C361.03 110.875 361.546 108.266 361.546 105.078V59.75Z" fill="#9D5353"/>
<path d="M425.802 59.75V128H412.958V59.75H425.802ZM446.989 59.75V69.9219H392.005V59.75H446.989Z" fill="#C1A3A3"/>
<path d="M517.861 92.1406V95.6562C517.861 100.812 517.173 105.453 515.798 109.578C514.423 113.672 512.47 117.156 509.939 120.031C507.408 122.906 504.392 125.109 500.892 126.641C497.392 128.172 493.502 128.938 489.22 128.938C485.002 128.938 481.127 128.172 477.595 126.641C474.095 125.109 471.064 122.906 468.502 120.031C465.939 117.156 463.955 113.672 462.548 109.578C461.142 105.453 460.439 100.812 460.439 95.6562V92.1406C460.439 86.9531 461.142 82.3125 462.548 78.2188C463.955 74.125 465.923 70.6406 468.455 67.7656C470.986 64.8594 474.002 62.6406 477.502 61.1094C481.033 59.5781 484.908 58.8125 489.127 58.8125C493.408 58.8125 497.298 59.5781 500.798 61.1094C504.298 62.6406 507.314 64.8594 509.845 67.7656C512.408 70.6406 514.377 74.125 515.752 78.2188C517.158 82.3125 517.861 86.9531 517.861 92.1406ZM504.83 95.6562V92.0469C504.83 88.3281 504.486 85.0625 503.798 82.25C503.111 79.4062 502.095 77.0156 500.752 75.0781C499.408 73.1406 497.752 71.6875 495.783 70.7188C493.814 69.7188 491.595 69.2188 489.127 69.2188C486.627 69.2188 484.408 69.7188 482.47 70.7188C480.564 71.6875 478.939 73.1406 477.595 75.0781C476.252 77.0156 475.22 79.4062 474.502 82.25C473.814 85.0625 473.47 88.3281 473.47 92.0469V95.6562C473.47 99.3438 473.814 102.609 474.502 105.453C475.22 108.297 476.252 110.703 477.595 112.672C478.97 114.609 480.627 116.078 482.564 117.078C484.502 118.078 486.72 118.578 489.22 118.578C491.72 118.578 493.939 118.078 495.877 117.078C497.814 116.078 499.439 114.609 500.752 112.672C502.095 110.703 503.111 108.297 503.798 105.453C504.486 102.609 504.83 99.3438 504.83 95.6562Z" fill="#C0A080"/>
<defs>
<linearGradient id="paint0_linear_2_9" x1="304" y1="33" x2="304" y2="155" gradientUnits="userSpaceOnUse">
<stop stop-color="#92A9BD"/>
<stop offset="1" stop-color="#7C99AC" stop-opacity="0"/>
</linearGradient>
</defs>
</svg>
